<svg width="19" height="16" viewBox="0 0 19 16" fill="none" xmlns="http://www.w3.org/2000/svg">
<path fill-rule="evenodd" clip-rule="evenodd" d="M19 2.32822C18.3012 2.63856 17.5497 2.84756 16.7612 2.9415C17.5655 2.45911 18.1841 1.69594 18.4754 0.785C17.7217 1.23256 16.8878 1.55661 16.0001 1.73183C15.2887 0.973944 14.2753 0.5 13.1543 0.5C11.0021 0.5 9.25617 2.24589 9.25617 4.39817C9.25617 4.70428 9.291 5.00089 9.3575 5.28694C6.118 5.12439 3.24478 3.57272 1.32261 1.21356C0.986944 1.78989 0.794833 2.45911 0.794833 3.17372C0.794833 4.52589 1.48306 5.71867 2.52911 6.4185C1.8905 6.39844 1.28883 6.22217 0.763167 5.93083C0.763167 5.94667 0.763167 5.96356 0.763167 5.97939C0.763167 7.86778 2.10689 9.44372 3.88972 9.80156C3.5625 9.89128 3.21839 9.93878 2.86267 9.93878C2.61144 9.93878 2.36761 9.9145 2.13011 9.86911C2.62622 11.4176 4.06494 12.5439 5.77072 12.5756C4.4365 13.6216 2.75606 14.2444 0.929944 14.2444C0.615389 14.2444 0.305056 14.2264 0 14.1895C1.72478 15.2957 3.77361 15.9417 5.9755 15.9417C13.1459 15.9417 17.0662 10.0011 17.0662 4.84994C17.0662 4.68106 17.062 4.51322 17.0546 4.34644C17.8167 3.7965 18.4775 3.11039 19 2.32822Z" fill="#1DA1F2"/>
</svg>
